<?xml version="1.0" standalone="no"?>
<!DOCTYPE svg PUBLIC "-//W3C//DTD SVG 20010904//EN"
 "http://www.w3.org/TR/2001/REC-SVG-20010904/DTD/svg10.dtd">
<svg version="1.0" xmlns="http://www.w3.org/2000/svg"
 width="252.000000pt" height="176.000000pt" viewBox="0 0 252.000000 176.000000"
 preserveAspectRatio="xMidYMid meet">

<g transform="translate(0.000000,176.000000) scale(0.100000,-0.100000)"
fill="#000000" stroke="none">
<path d="M310 1645 c0 -10 139 -144 249 -239 237 -205 522 -413 639 -467 29
-13 52 -29 52 -34 0 -6 -12 -25 -27 -43 l-28 -33 -85 32 c-249 92 -498 91
-685 -4 -84 -42 -193 -153 -234 -239 -56 -118 -64 -225 -22 -307 55 -107 223
-179 352 -152 143 31 257 116 518 385 46 47 87 86 92 86 13 0 102 -64 191
-137 97 -80 189 -180 285 -308 42 -55 77 -101 78 -103 2 -2 27 4 56 12 94 28
173 22 442 -34 20 -4 37 -4 37 -1 0 11 -355 320 -475 413 -61 47 -175 129
-255 181 -80 53 -160 108 -178 123 -32 26 -32 27 -15 46 36 40 49 41 131 9
237 -94 493 -95 682 -4 101 49 194 142 246 249 36 71 39 85 39 159 0 67 -5 89
-28 137 -51 104 -151 161 -287 162 -148 1 -252 -63 -485 -301 -112 -113 -178
-173 -191 -173 -74 0 -420 330 -545 519 -15 24 -16 24 -83 11 -89 -17 -213 -8
-336 24 -52 13 -103 27 -112 31 -10 4 -18 4 -18 0z m1803 -288 c37 -16 103
-86 118 -125 17 -44 15 -133 -5 -170 -48 -92 -155 -164 -262 -178 -111 -13
-323 36 -422 99 l-47 30 111 106 c218 210 385 288 507 238z m-1368 -558 c98
-21 295 -94 295 -110 0 -15 -196 -206 -260 -253 -85 -63 -169 -105 -224 -112
-109 -15 -200 27 -241 110 -73 146 29 320 217 370 72 20 97 19 213 -5z"/>
</g>
</svg>
